<?xml version="1.0" standalone="no"?><!DOCTYPE svg PUBLIC "-//W3C//DTD SVG 1.1//EN" "http://www.w3.org/Graphics/SVG/1.1/DTD/svg11.dtd">
<svg t="1715579291768" class="icon" viewBox="0 0 1024 1024" version="1.1" xmlns="http://www.w3.org/2000/svg" p-id="1473"
     width="200" height="200"><path d="M875.621625 354.290095l0-10.524704c0-50.519604-36.836977-91.566462-87.35658-91.566462L576.713884 252.198929c-30.522154 0-59.992349-10.524704-59.992349-41.046858l0 4.209882c0-50.519604-36.836977-83.146699-87.35658-83.146699L164.136268 132.215254c-50.519604 1.052982-96.829326 33.680077-96.829326 84.199681l0 536.772196c9.472745-13.682627 22.102391-24.207331 36.836977-31.575136L104.143918 216.413911c0-30.522154 29.470195-46.309722 59.992349-46.309722L430.416913 170.104189c30.522154 0 54.729485 15.787568 54.729485 46.309722 0 50.519604 41.046858 73.674976 91.566462 73.674976l211.55116 0c30.522154 0 50.519604 25.260314 50.519604 54.729485l0 9.472745L310.432215 354.291119c-50.519604 0-96.829326 41.046858-96.829326 91.566462l0 133.666302c11.577686-10.524704 23.154349-18.944468 36.836977-26.312272L250.439866 445.857581c0-30.522154 29.470195-54.729485 59.992349-54.729485l559.926546 0c30.522154 0 50.519604 25.260314 50.519604 54.729485l0 339.955622c0 30.522154-19.99745 54.729485-50.519604 54.729485L655.650701 840.542688c-11.577686 14.734586-25.260314 27.365254-42.09984 36.836977l255.755941 0c50.519604 0 87.35658-41.046858 87.35658-91.566462L956.663382 445.857581C957.716364 397.442918 930.35111 359.552959 875.621625 354.290095z" p-id="1474"></path><path d="M650.387837 758.447948c0-57.887408-47.362704-105.249089-105.249089-105.249089-11.577686 0-24.207331 2.104941-34.732036 6.314823l-26.312272 9.472745-12.629645-24.207331c-26.312272-50.519604-76.831876-82.09474-133.666302-82.09474-83.146699 0-150.506852 67.360154-150.506852 150.506852l0 34.732036-34.732036-3.157923c-4.209882-1.052982-7.367805-1.052982-10.524704-1.052982-32.627095 0-59.992349 26.312272-59.992349 59.992349 0 32.627095 26.312272 59.992349 59.992349 59.992349l403.104871 0C604.078115 863.697037 650.387837 816.335357 650.387837 758.447948z" p-id="1475"></path></svg>